<?xml version="1.0" encoding="utf-8"?>
<svg version="1.1" xmlns:xlink="http://www.w3.org/1999/xlink" width="16px" height="16px" xmlns="http://www.w3.org/2000/svg">
  <g transform="matrix(1 0 0 1 -208 -12 )">
    <path d="M 10.5729166666667 13.2395833333333  C 10.6354166666667 13.1770833333333  10.6666666666667 13.0972222222222  10.6666666666667 13  L 10.6666666666667 11.3333333333333  C 10.6666666666667 11.2361111111111  10.6354166666667 11.15625  10.5729166666667 11.09375  C 10.5104166666667 11.03125  10.4305555555555 11  10.3333333333333 11  L 9.33333333333334 11  L 9.33333333333334 5.66666666666669  C 9.33333333333334 5.5694444444444  9.30208333333334 5.48958333333331  9.23958333333334 5.42708333333331  C 9.17708333333334 5.36458333333331  9.0972222222222 5.33333333333331  9 5.33333333333331  L 5.66666666666666 5.33333333333331  C 5.56944444444446 5.33333333333331  5.48958333333334 5.36458333333331  5.42708333333334 5.42708333333331  C 5.36458333333334 5.48958333333331  5.33333333333334 5.5694444444444  5.33333333333334 5.66666666666669  L 5.33333333333334 7.33333333333331  C 5.33333333333334 7.4305555555556  5.36458333333334 7.51041666666669  5.42708333333334 7.57291666666669  C 5.48958333333334 7.63541666666669  5.56944444444446 7.66666666666669  5.66666666666666 7.66666666666669  L 6.66666666666666 7.66666666666669  L 6.66666666666666 11  L 5.66666666666666 11  C 5.56944444444446 11  5.48958333333334 11.03125  5.42708333333334 11.09375  C 5.36458333333334 11.15625  5.33333333333334 11.2361111111111  5.33333333333334 11.3333333333333  L 5.33333333333334 13  C 5.33333333333334 13.0972222222222  5.36458333333334 13.1770833333333  5.42708333333334 13.2395833333333  C 5.48958333333334 13.3020833333333  5.56944444444446 13.3333333333333  5.66666666666666 13.3333333333333  L 10.3333333333333 13.3333333333333  C 10.4305555555555 13.3333333333333  10.5104166666667 13.3020833333333  10.5729166666667 13.2395833333333  Z M 9.23958333333334 3.90625  C 9.30208333333334 3.84375  9.33333333333334 3.76388888888891  9.33333333333334 3.66666666666669  L 9.33333333333334 2  C 9.33333333333334 1.90277777777777  9.30208333333334 1.82291666666669  9.23958333333334 1.76041666666669  C 9.17708333333334 1.69791666666669  9.0972222222222 1.66666666666669  9 1.66666666666669  L 7 1.66666666666669  C 6.9027777777778 1.66666666666669  6.82291666666666 1.69791666666669  6.76041666666666 1.76041666666669  C 6.69791666666666 1.82291666666669  6.66666666666666 1.90277777777777  6.66666666666666 2  L 6.66666666666666 3.66666666666669  C 6.66666666666666 3.76388888888891  6.69791666666666 3.84375  6.76041666666666 3.90625  C 6.82291666666666 3.96875  6.9027777777778 4  7 4  L 9 4  C 9.0972222222222 4  9.17708333333334 3.96875  9.23958333333334 3.90625  Z M 14.9270833333333 3.984375  C 15.6423611111111 5.2100694444444  16 6.54861111111109  16 8  C 16 9.45138888888891  15.6423611111111 10.7899305555556  14.9270833333333 12.015625  C 14.2118055555555 13.2413194444444  13.2413194444445 14.2118055555556  12.015625 14.9270833333333  C 10.7899305555555 15.6423611111111  9.45138888888889 16  8 16  C 6.54861111111111 16  5.21006944444446 15.6423611111111  3.984375 14.9270833333333  C 2.75868055555554 14.2118055555556  1.78819444444446 13.2413194444444  1.07291666666666 12.015625  C 0.357638888888886 10.7899305555556  0 9.45138888888891  0 8  C 0 6.54861111111109  0.357638888888886 5.2100694444444  1.07291666666666 3.984375  C 1.78819444444446 2.7586805555556  2.75868055555554 1.7881944444444  3.984375 1.07291666666669  C 5.21006944444446 0.357638888888914  6.54861111111111 0  8 0  C 9.45138888888889 0  10.7899305555555 0.357638888888914  12.015625 1.07291666666669  C 13.2413194444445 1.7881944444444  14.2118055555555 2.7586805555556  14.9270833333333 3.984375  Z " fill-rule="nonzero" fill="#000000" stroke="none" transform="matrix(1 0 0 1 208 12 )" />
  </g>
</svg>