<?xml version="1.0" encoding="utf-8"?>
<svg version="1.1" xmlns:xlink="http://www.w3.org/1999/xlink" width="20px" height="20px" xmlns="http://www.w3.org/2000/svg">
  <g transform="matrix(1 0 0 1 -90 -182 )">
    <path d="M 14.4661458333333 9.28385416666663  C 14.5963541666667 9.42274305555554  14.6267361111111 9.5746527777776  14.5572916666667 9.73958333333337  C 14.4878472222222 9.91319444444446  14.3576388888889 10  14.1666666666667 10  L 11.6666666666667 10  L 11.6666666666667 14.5833333333334  C 11.6666666666667 14.704861111111  11.6276041666667 14.8046875  11.5494791666667 14.8828125  C 11.4713541666667 14.9609375  11.3715277777778 15  11.25 15  L 8.75 15  C 8.6284722222222 15  8.52864583333334 14.9609375  8.45052083333334 14.8828125  C 8.37239583333334 14.8046875  8.33333333333334 14.704861111111  8.33333333333334 14.5833333333334  L 8.33333333333334 10  L 5.83333333333334 10  C 5.71180555555556 10  5.61197916666666 9.9609375  5.53385416666666 9.8828125  C 5.45572916666666 9.8046875  5.41666666666666 9.70486111111097  5.41666666666666 9.58333333333337  C 5.41666666666666 9.47916666666663  5.46006944444444 9.375  5.546875 9.27083333333337  L 9.70052083333334 5.1171875  C 9.79600694444444 5.0390625  9.89583333333334 5  10 5  C 10.1041666666667 5  10.2039930555556 5.0390625  10.2994791666667 5.1171875  L 14.4661458333333 9.28385416666663  Z M 13.5546875 3.8671875  C 12.4696180555556 3.23350694444446  11.2847222222222 2.91666666666663  10 2.91666666666663  C 8.7152777777778 2.91666666666663  7.53038194444444 3.23350694444446  6.4453125 3.8671875  C 5.36024305555556 4.50086805555554  4.50086805555556 5.36024305555554  3.8671875 6.4453125  C 3.23350694444444 7.53038194444446  2.91666666666666 8.7152777777776  2.91666666666666 10  C 2.91666666666666 11.2847222222224  3.23350694444444 12.4696180555555  3.8671875 13.5546875  C 4.50086805555556 14.6397569444445  5.36024305555556 15.4991319444445  6.4453125 16.1328125  C 7.53038194444444 16.7664930555555  8.7152777777778 17.0833333333334  10 17.0833333333334  C 11.2847222222222 17.0833333333334  12.4696180555556 16.7664930555555  13.5546875 16.1328125  C 14.6397569444444 15.4991319444445  15.4991319444444 14.6397569444445  16.1328125 13.5546875  C 16.7664930555555 12.4696180555555  17.0833333333333 11.2847222222224  17.0833333333333 10  C 17.0833333333333 8.7152777777776  16.7664930555555 7.53038194444446  16.1328125 6.4453125  C 15.4991319444444 5.36024305555554  14.6397569444444 4.50086805555554  13.5546875 3.8671875  Z M 18.6588541666667 4.98046875  C 19.5529513888889 6.51258680555554  20 8.18576388888903  20 10  C 20 11.814236111111  19.5529513888889 13.4874131944445  18.6588541666667 15.01953125  C 17.7647569444445 16.5516493055555  16.5516493055555 17.7647569444445  15.01953125 18.6588541666666  C 13.4874131944444 19.552951388889  11.8142361111111 20  10 20  C 8.1857638888889 20  6.51258680555556 19.552951388889  4.98046875 18.6588541666666  C 3.44835069444444 17.7647569444445  2.23524305555556 16.5516493055555  1.34114583333334 15.01953125  C 0.4470486111111 13.4874131944445  0 11.814236111111  0 10  C 0 8.18576388888903  0.4470486111111 6.51258680555554  1.34114583333334 4.98046875  C 2.23524305555556 3.44835069444446  3.44835069444444 2.23524305555554  4.98046875 1.34114583333337  C 6.51258680555556 0.447048611110972  8.1857638888889 0  10 0  C 11.8142361111111 0  13.4874131944444 0.447048611110972  15.01953125 1.34114583333337  C 16.5516493055555 2.23524305555554  17.7647569444445 3.44835069444446  18.6588541666667 4.98046875  Z " fill-rule="nonzero" fill="#7fa543" stroke="none" transform="matrix(1 0 0 1 90 182 )" />
  </g>
</svg>