<?xml version="1.0" encoding="utf-8"?>
<svg version="1.1" xmlns:xlink="http://www.w3.org/1999/xlink" width="16px" height="16px" xmlns="http://www.w3.org/2000/svg">
  <g transform="matrix(1 0 0 1 -93 -102 )">
    <path d="M 11.5729166666667 7.4270833333333  C 11.6770833333333 7.53819444444443  11.7013888888889 7.65972222222209  11.6458333333333 7.7916666666667  C 11.5902777777778 7.93055555555557  11.4861111111111 8  11.3333333333333 8  L 9.33333333333333 8  L 9.33333333333333 11.6666666666667  C 9.33333333333333 11.7638888888888  9.30208333333333 11.84375  9.23958333333333 11.90625  C 9.17708333333333 11.96875  9.09722222222224 12  9 12  L 7 12  C 6.90277777777776 12  6.82291666666667 11.96875  6.76041666666667 11.90625  C 6.69791666666667 11.84375  6.66666666666667 11.7638888888888  6.66666666666667 11.6666666666667  L 6.66666666666667 8  L 4.66666666666667 8  C 4.56944444444444 8  4.48958333333333 7.96875  4.42708333333333 7.90625  C 4.36458333333333 7.84375  4.33333333333333 7.76388888888877  4.33333333333333 7.6666666666667  C 4.33333333333333 7.5833333333333  4.36805555555556 7.5  4.4375 7.4166666666667  L 7.76041666666667 4.09375  C 7.83680555555556 4.03125  7.91666666666667 4  8 4  C 8.08333333333333 4  8.16319444444444 4.03125  8.23958333333333 4.09375  L 11.5729166666667 7.4270833333333  Z M 10.84375 3.09375  C 9.97569444444444 2.58680555555557  9.02777777777776 2.3333333333333  8 2.3333333333333  C 6.97222222222224 2.3333333333333  6.02430555555556 2.58680555555557  5.15625 3.09375  C 4.28819444444444 3.60069444444443  3.60069444444444 4.28819444444443  3.09375 5.15625  C 2.58680555555556 6.02430555555557  2.33333333333333 6.97222222222209  2.33333333333333 8  C 2.33333333333333 9.02777777777791  2.58680555555556 9.97569444444443  3.09375 10.84375  C 3.60069444444444 11.7118055555556  4.28819444444444 12.3993055555556  5.15625 12.90625  C 6.02430555555556 13.4131944444444  6.97222222222224 13.6666666666667  8 13.6666666666667  C 9.02777777777776 13.6666666666667  9.97569444444444 13.4131944444444  10.84375 12.90625  C 11.7118055555556 12.3993055555556  12.3993055555556 11.7118055555556  12.90625 10.84375  C 13.4131944444444 9.97569444444443  13.6666666666667 9.02777777777791  13.6666666666667 8  C 13.6666666666667 6.97222222222209  13.4131944444444 6.02430555555557  12.90625 5.15625  C 12.3993055555556 4.28819444444443  11.7118055555556 3.60069444444443  10.84375 3.09375  Z M 14.9270833333333 3.984375  C 15.6423611111111 5.21006944444443  16 6.54861111111123  16 8  C 16 9.45138888888877  15.6423611111111 10.7899305555556  14.9270833333333 12.015625  C 14.2118055555556 13.2413194444444  13.2413194444444 14.2118055555556  12.015625 14.9270833333333  C 10.7899305555556 15.6423611111112  9.45138888888889 16  8 16  C 6.54861111111111 16  5.21006944444444 15.6423611111112  3.984375 14.9270833333333  C 2.75868055555556 14.2118055555556  1.78819444444444 13.2413194444444  1.07291666666667 12.015625  C 0.357638888888886 10.7899305555556  0 9.45138888888877  0 8  C 0 6.54861111111123  0.357638888888886 5.21006944444443  1.07291666666667 3.984375  C 1.78819444444444 2.75868055555557  2.75868055555556 1.78819444444443  3.984375 1.0729166666667  C 5.21006944444444 0.357638888888772  6.54861111111111 0  8 0  C 9.45138888888889 0  10.7899305555556 0.357638888888772  12.015625 1.0729166666667  C 13.2413194444444 1.78819444444443  14.2118055555556 2.75868055555557  14.9270833333333 3.984375  Z " fill-rule="nonzero" fill="#7fa543" stroke="none" transform="matrix(1 0 0 1 93 102 )" />
  </g>
</svg>