<?xml version="1.0" encoding="utf-8"?>
<svg version="1.1" xmlns:xlink="http://www.w3.org/1999/xlink" width="15px" height="8px" xmlns="http://www.w3.org/2000/svg">
  <g transform="matrix(1 0 0 1 -134 -849 )">
    <path d="M 14.0206473214285 1.51388888888891  C 14.1973586309524 1.33796296296305  14.2857142857142 1.12962962962956  14.2857142857142 0.888888888888914  C 14.2857142857142 0.648148148148266  14.1973586309524 0.439814814814781  14.0206473214285 0.263888888888914  C 13.8439360119047 0.0879629629630472  13.6346726190476 0  13.3928571428571 0  L 0.892857142857167 0  C 0.651041666666629 0  0.441778273809518 0.0879629629630472  0.265066964285722 0.263888888888914  C 0.0883556547619264 0.439814814814781  0 0.648148148148266  0 0.888888888888914  C 0 1.12962962962956  0.0883556547619264 1.33796296296305  0.265066964285722 1.51388888888891  L 6.51506696428567 7.73611111111109  C 6.69177827380946 7.91203703703707  6.90104166666663 8  7.14285714285717 8  C 7.38467261904759 8  7.59393601190476 7.91203703703707  7.77064732142856 7.73611111111109  L 14.0206473214285 1.51388888888891  Z " fill-rule="nonzero" fill="#ff0066" stroke="none" transform="matrix(1 0 0 1 134 849 )" />
  </g>
</svg>