<?xml version="1.0" encoding="utf-8"?>
<svg version="1.1" xmlns:xlink="http://www.w3.org/1999/xlink" width="15px" height="8px" xmlns="http://www.w3.org/2000/svg">
  <g transform="matrix(1 0 0 1 -223 -875 )">
    <path d="M 14.0206473214285 6.48611111111109  C 14.1973586309524 6.66203703703695  14.2857142857142 6.87037037037044  14.2857142857142 7.11111111111109  C 14.2857142857142 7.35185185185173  14.1973586309524 7.56018518518522  14.0206473214285 7.73611111111109  C 13.8439360119047 7.91203703703695  13.6346726190476 8  13.3928571428571 8  L 0.892857142857167 8  C 0.651041666666629 8  0.441778273809518 7.91203703703695  0.265066964285722 7.73611111111109  C 0.0883556547619264 7.56018518518522  0 7.35185185185173  0 7.11111111111109  C 0 6.87037037037044  0.0883556547619264 6.66203703703695  0.265066964285722 6.48611111111109  L 6.51506696428567 0.263888888888914  C 6.69177827380946 0.0879629629629335  6.90104166666663 0  7.14285714285717 0  C 7.38467261904759 0  7.59393601190476 0.0879629629629335  7.77064732142856 0.263888888888914  L 14.0206473214285 6.48611111111109  Z " fill-rule="nonzero" fill="#7fa543" stroke="none" transform="matrix(1 0 0 1 223 875 )" />
  </g>
</svg>