<?xml version="1.0" encoding="utf-8"?>
<svg version="1.1" xmlns:xlink="http://www.w3.org/1999/xlink" width="23px" height="24px" xmlns="http://www.w3.org/2000/svg">
  <g transform="matrix(1 0 0 1 -1242 -61 )">
    <path d="M 5.8003542510121 17.8659539473684  C 6.14195344129553 18.2086074561404  6.31275303643724 18.6220760233918  6.31275303643724 19.1063596491228  C 6.31275303643724 19.5906432748538  6.14195344129553 20.0041118421053  5.8003542510121 20.3467653508772  C 5.45875506072866 20.6894188596491  5.04655870445345 20.8607456140351  4.56376518218622 20.8607456140351  C 4.09008097165997 20.8607456140351  3.68016194331972 20.687134502924  3.33400809716591 20.3399122807018  C 2.9878542510121 19.9926900584795  2.81477732793519 19.5815058479532  2.81477732793519 19.1063596491228  C 2.81477732793519 18.6220760233918  2.98557692307691 18.2086074561404  3.32717611336034 17.8659539473684  C 3.66877530364377 17.5233004385965  4.08097165991899 17.3519736842105  4.56376518218622 17.3519736842105  C 5.04655870445345 17.3519736842105  5.45875506072866 17.5233004385965  5.8003542510121 17.8659539473684  Z M 12.6050101214573 20.6894188596491  C 12.9466093117408 21.032072368421  13.1174089068825 21.4455409356725  13.1174089068825 21.9298245614035  C 13.1174089068825 22.4141081871345  12.9466093117408 22.827576754386  12.6050101214573 23.1702302631579  C 12.2634109311739 23.5128837719298  11.8512145748987 23.6842105263158  11.3684210526317 23.6842105263158  C 10.8856275303644 23.6842105263158  10.4734311740892 23.5128837719298  10.1318319838058 23.1702302631579  C 9.79023279352236 22.827576754386  9.61943319838065 22.4141081871345  9.61943319838065 21.9298245614035  C 9.61943319838065 21.4455409356725  9.79023279352236 21.032072368421  10.1318319838058 20.6894188596491  C 10.4734311740892 20.3467653508772  10.8856275303644 20.1754385964912  11.3684210526317 20.1754385964912  C 11.8512145748987 20.1754385964912  12.2634109311739 20.3467653508772  12.6050101214573 20.6894188596491  Z M 2.98557692307691 11.0402960526316  C 3.32717611336034 11.3829495614035  3.49797570850205 11.796418128655  3.49797570850205 12.280701754386  C 3.49797570850205 12.764985380117  3.32717611336034 13.1784539473684  2.98557692307691 13.5211074561403  C 2.64397773279347 13.8637609649123  2.23178137651826 14.0350877192982  1.74898785425103 14.0350877192982  C 1.2661943319838 14.0350877192982  0.85399797570858 13.8637609649123  0.512398785425148 13.5211074561403  C 0.170799595141716 13.1784539473684  0 12.764985380117  0 12.280701754386  C 0 11.796418128655  0.170799595141716 11.3829495614035  0.512398785425148 11.0402960526316  C 0.85399797570858 10.6976425438596  1.2661943319838 10.5263157894737  1.74898785425103 10.5263157894737  C 2.23178137651826 10.5263157894737  2.64397773279347 10.6976425438596  2.98557692307691 11.0402960526316  Z M 19.4096659919028 17.8659539473684  C 19.7512651821862 18.2086074561404  19.9220647773279 18.6220760233918  19.9220647773279 19.1063596491228  C 19.9220647773279 19.5815058479532  19.748987854251 19.9926900584795  19.4028340080972 20.3399122807018  C 19.0566801619434 20.687134502924  18.6467611336031 20.8607456140351  18.1730769230769 20.8607456140351  C 17.6902834008097 20.8607456140351  17.2780870445345 20.6894188596491  16.936487854251 20.3467653508772  C 16.5948886639676 20.0041118421053  16.4240890688259 19.5906432748538  16.4240890688259 19.1063596491228  C 16.4240890688259 18.6220760233918  16.5948886639676 18.2086074561404  16.936487854251 17.8659539473684  C 17.2780870445345 17.5233004385965  17.6902834008097 17.3519736842105  18.1730769230769 17.3519736842105  C 18.6558704453441 17.3519736842105  19.0680668016194 17.5233004385965  19.4096659919028 17.8659539473684  Z M 6.10779352226723 3.90625  C 6.53593117408923 4.33570906432748  6.75 4.85197368421053  6.75 5.45504385964912  C 6.75 6.05811403508773  6.53593117408923 6.57437865497076  6.10779352226723 7.00383771929825  C 5.67965587044523 7.43329678362574  5.16497975708512 7.64802631578947  4.56376518218622 7.64802631578947  C 3.96255060728731 7.64802631578947  3.4478744939272 7.43329678362574  3.0197368421052 7.00383771929825  C 2.59159919028343 6.57437865497076  2.37753036437243 6.05811403508773  2.37753036437243 5.45504385964912  C 2.37753036437243 4.85197368421053  2.59159919028343 4.33570906432748  3.0197368421052 3.90625  C 3.4478744939272 3.47679093567251  3.96255060728731 3.26206140350877  4.56376518218622 3.26206140350877  C 5.16497975708512 3.26206140350877  5.67965587044523 3.47679093567251  6.10779352226723 3.90625  Z M 22.224443319838 11.0402960526316  C 22.5660425101214 11.3829495614035  22.7368421052631 11.796418128655  22.7368421052631 12.280701754386  C 22.7368421052631 12.764985380117  22.5660425101214 13.1784539473684  22.224443319838 13.5211074561403  C 21.8828441295545 13.8637609649123  21.4706477732793 14.0350877192982  20.9878542510121 14.0350877192982  C 20.5050607287449 14.0350877192982  20.0928643724696 13.8637609649123  19.7512651821862 13.5211074561403  C 19.4096659919028 13.1784539473684  19.2388663967611 12.764985380117  19.2388663967611 12.280701754386  C 19.2388663967611 11.796418128655  19.4096659919028 11.3829495614035  19.7512651821862 11.0402960526316  C 20.0928643724696 10.6976425438596  20.5050607287449 10.5263157894737  20.9878542510121 10.5263157894737  C 21.4706477732793 10.5263157894737  21.8828441295545 10.6976425438596  22.224443319838 11.0402960526316  Z M 13.2267206477732 0.767543859649123  C 13.7368421052631 1.27923976608187  13.9919028340082 1.90058479532163  13.9919028340082 2.63157894736842  C 13.9919028340082 3.36257309941521  13.7368421052631 3.98391812865497  13.2267206477732 4.49561403508772  C 12.7165991902834 5.00730994152047  12.0971659919028 5.26315789473684  11.3684210526317 5.26315789473684  C 10.6396761133603 5.26315789473684  10.0202429149797 5.00730994152047  9.51012145748996 4.49561403508772  C 9 3.98391812865497  8.74493927125491 3.36257309941521  8.74493927125491 2.63157894736842  C 8.74493927125491 1.90058479532163  9 1.27923976608187  9.51012145748996 0.767543859649123  C 10.0202429149797 0.255847953216374  10.6396761133603 0  11.3684210526317 0  C 12.0971659919028 0  12.7165991902834 0.255847953216374  13.2267206477732 0.767543859649123  Z M 20.331983805668 3.28947368421053  C 20.9331983805669 3.89254385964912  21.233805668016 4.61440058479532  21.233805668016 5.45504385964912  C 21.233805668016 6.30482456140351  20.9331983805669 7.02896564327485  20.331983805668 7.62746710526316  C 19.7307692307691 8.22596856725146  19.0111336032387 8.52521929824562  18.1730769230769 8.52521929824562  C 17.3259109311739 8.52521929824562  16.6039979757084 8.22596856725146  16.0073380566801 7.62746710526316  C 15.4106781376518 7.02896564327485  15.1123481781376 6.30482456140351  15.1123481781376 5.45504385964912  C 15.1123481781376 4.61440058479532  15.4106781376518 3.89254385964912  16.0073380566801 3.28947368421053  C 16.6039979757084 2.68640350877192  17.3259109311739 2.38486842105263  18.1730769230769 2.38486842105263  C 19.0111336032387 2.38486842105263  19.7307692307691 2.68640350877192  20.331983805668 3.28947368421053  Z " fill-rule="nonzero" fill="#f7f7f7" stroke="none" transform="matrix(1 0 0 1 1242 61 )" />
  </g>
</svg>