<?xml version="1.0" encoding="utf-8"?>
<svg version="1.1" xmlns:xlink="http://www.w3.org/1999/xlink" width="9px" height="5px" xmlns="http://www.w3.org/2000/svg">
  <g transform="matrix(1 0 0 1 -213 -19 )">
    <path d="M 8.76290457589283 0.164930555555557  C 8.87334914434521 0.27488425925926  8.92857142857142 0.405092592592592  8.92857142857142 0.555555555555557  C 8.92857142857142 0.706018518518519  8.87334914434521 0.836226851851851  8.76290457589283 0.946180555555557  L 4.85665457589283 4.83506944444444  C 4.74621000744045 4.94502314814815  4.61542038690476 5  4.46428571428572 5  C 4.31315104166666 5  4.18236142113093 4.94502314814815  4.07191685267856 4.83506944444444  L 0.165666852678555 0.946180555555557  C 0.0552222842261756 0.836226851851851  0 0.706018518518519  0 0.555555555555557  C 0 0.405092592592592  0.0552222842261756 0.27488425925926  0.165666852678555 0.164930555555557  C 0.276111421130935 0.0549768518518512  0.406901041666657 0  0.558035714285722 0  L 8.37053571428572 0  C 8.52167038690476 0  8.65246000744045 0.0549768518518512  8.76290457589283 0.164930555555557  Z " fill-rule="nonzero" fill="#000000" stroke="none" transform="matrix(1 0 0 1 213 19 )" />
  </g>
</svg>