<?xml version="1.0" encoding="utf-8"?>
<svg version="1.1" xmlns:xlink="http://www.w3.org/1999/xlink" width="16px" height="16px" xmlns="http://www.w3.org/2000/svg">
  <g>
    <path d="M 8 3.60416666666669  C 8.18055555555555 3.60416666666669  8.33680555555555 3.67013888888886  8.46875 3.80208333333331  L 13.1979166666667 8.53125  C 13.3298611111111 8.6631944444444  13.3958333333333 8.8194444444444  13.3958333333333 9  C 13.3958333333333 9.1805555555556  13.3298611111111 9.3368055555556  13.1979166666667 9.46875  L 12.1354166666667 10.53125  C 12.0034722222222 10.6631944444444  11.8472222222222 10.7291666666667  11.6666666666667 10.7291666666667  C 11.4861111111111 10.7291666666667  11.3298611111111 10.6631944444444  11.1979166666667 10.53125  L 8 7.33333333333331  L 4.80208333333334 10.53125  C 4.67013888888889 10.6631944444444  4.51388888888889 10.7291666666667  4.33333333333334 10.7291666666667  C 4.15277777777778 10.7291666666667  3.99652777777778 10.6631944444444  3.86458333333334 10.53125  L 2.80208333333334 9.46875  C 2.67013888888889 9.3368055555556  2.60416666666666 9.1805555555556  2.60416666666666 9  C 2.60416666666666 8.8194444444444  2.67013888888889 8.6631944444444  2.80208333333334 8.53125  L 7.53125 3.80208333333331  C 7.66319444444445 3.67013888888886  7.81944444444445 3.60416666666669  8 3.60416666666669  Z M 14.9270833333333 12.015625  C 15.6423611111111 10.7899305555556  16 9.45138888888886  16 8  C 16 6.54861111111114  15.6423611111111 5.2100694444444  14.9270833333333 3.984375  C 14.2118055555555 2.7586805555556  13.2413194444445 1.7881944444444  12.015625 1.07291666666669  C 10.7899305555556 0.357638888888857  9.4513888888889 0  8 0  C 6.54861111111111 0  5.21006944444445 0.357638888888857  3.984375 1.07291666666669  C 2.75868055555555 1.7881944444444  1.78819444444445 2.7586805555556  1.07291666666666 3.984375  C 0.357638888888893 5.2100694444444  0 6.54861111111114  0 8  C 0 9.45138888888886  0.357638888888893 10.7899305555556  1.07291666666666 12.015625  C 1.78819444444445 13.2413194444444  2.75868055555555 14.2118055555556  3.984375 14.9270833333333  C 5.21006944444445 15.6423611111111  6.54861111111111 16  8 16  C 9.4513888888889 16  10.7899305555556 15.6423611111111  12.015625 14.9270833333333  C 13.2413194444445 14.2118055555556  14.2118055555555 13.2413194444444  14.9270833333333 12.015625  Z " fill-rule="nonzero" fill="#000000" stroke="none" />
  </g>
</svg>