<?xml version="1.0" encoding="utf-8"?>
<svg version="1.1" xmlns:xlink="http://www.w3.org/1999/xlink" width="16px" height="16px" xmlns="http://www.w3.org/2000/svg">
  <g transform="matrix(1 0 0 1 -783 -196 )">
    <path d="M 11.5729166666667 8.57291666666669  C 11.6770833333333 8.46180555555554  11.7013888888889 8.34027777777794  11.6458333333333 8.20833333333331  C 11.5902777777778 8.06944444444446  11.4861111111111 8  11.3333333333333 8  L 9.33333333333331 8  L 9.33333333333331 4.33333333333331  C 9.33333333333331 4.2361111111112  9.30208333333331 4.15625  9.23958333333331 4.09375  C 9.17708333333331 4.03125  9.09722222222223 4  9 4  L 7 4  C 6.90277777777777 4  6.82291666666669 4.03125  6.76041666666669 4.09375  C 6.69791666666669 4.15625  6.66666666666669 4.2361111111112  6.66666666666669 4.33333333333331  L 6.66666666666669 8  L 4.66666666666669 8  C 4.56944444444446 8  4.48958333333331 8.03125  4.42708333333331 8.09375  C 4.36458333333331 8.15625  4.33333333333331 8.2361111111112  4.33333333333331 8.33333333333331  C 4.33333333333331 8.41666666666669  4.36805555555554 8.5  4.4375 8.58333333333331  L 7.76041666666669 11.90625  C 7.83680555555554 11.96875  7.91666666666669 12  8 12  C 8.08333333333331 12  8.16319444444446 11.96875  8.23958333333331 11.90625  L 11.5729166666667 8.57291666666669  Z M 10.84375 12.90625  C 9.97569444444446 13.4131944444445  9.02777777777777 13.6666666666667  8 13.6666666666667  C 6.97222222222223 13.6666666666667  6.02430555555554 13.4131944444445  5.15625 12.90625  C 4.28819444444446 12.3993055555555  3.60069444444446 11.7118055555555  3.09375 10.84375  C 2.58680555555554 9.97569444444446  2.33333333333331 9.02777777777794  2.33333333333331 8  C 2.33333333333331 6.97222222222206  2.58680555555554 6.02430555555554  3.09375 5.15625  C 3.60069444444446 4.28819444444446  4.28819444444446 3.60069444444446  5.15625 3.09375  C 6.02430555555554 2.58680555555554  6.97222222222223 2.33333333333331  8 2.33333333333331  C 9.02777777777777 2.33333333333331  9.97569444444446 2.58680555555554  10.84375 3.09375  C 11.7118055555555 3.60069444444446  12.3993055555555 4.28819444444446  12.90625 5.15625  C 13.4131944444444 6.02430555555554  13.6666666666667 6.97222222222206  13.6666666666667 8  C 13.6666666666667 9.02777777777794  13.4131944444444 9.97569444444446  12.90625 10.84375  C 12.3993055555555 11.7118055555555  11.7118055555555 12.3993055555555  10.84375 12.90625  Z M 14.9270833333333 12.015625  C 15.6423611111111 10.7899305555555  16 9.4513888888888  16 8  C 16 6.5486111111112  15.6423611111111 5.21006944444446  14.9270833333333 3.984375  C 14.2118055555556 2.75868055555554  13.2413194444444 1.78819444444446  12.015625 1.07291666666669  C 10.7899305555555 0.3576388888888  9.45138888888889 0  8 0  C 6.54861111111111 0  5.21006944444446 0.3576388888888  3.984375 1.07291666666669  C 2.75868055555554 1.78819444444446  1.78819444444446 2.75868055555554  1.07291666666669 3.984375  C 0.357638888888886 5.21006944444446  0 6.5486111111112  0 8  C 0 9.4513888888888  0.357638888888886 10.7899305555555  1.07291666666669 12.015625  C 1.78819444444446 13.2413194444445  2.75868055555554 14.2118055555555  3.984375 14.9270833333333  C 5.21006944444446 15.6423611111112  6.54861111111111 16  8 16  C 9.45138888888889 16  10.7899305555555 15.6423611111112  12.015625 14.9270833333333  C 13.2413194444444 14.2118055555555  14.2118055555556 13.2413194444445  14.9270833333333 12.015625  Z " fill-rule="nonzero" fill="#ffffff" stroke="none" transform="matrix(1 0 0 1 783 196 )" />
  </g>
</svg>