<!-- Generator: Adobe Illustrator 22.1.0, SVG Export Plug-In  -->
<svg version="1.1"
	 xmlns="http://www.w3.org/2000/svg" xmlns:xlink="http://www.w3.org/1999/xlink" xmlns:a="http://ns.adobe.com/AdobeSVGViewerExtensions/3.0/"
	 x="0px" y="0px" width="248px" height="248px" viewBox="0 0 248 248" style="enable-background:new 0 0 248 248;"
	 xml:space="preserve">
<style type="text/css">
	.st0{fill:#FF0066;}
	.st1{fill:#83C749;}
</style>
<defs>
</defs>
<g>
	<path class="st0" d="M18,59.7c1-1.7,2.1-3.4,3.2-5C20.1,56.3,19,58,18,59.7z"/>
	<path class="st0" d="M7.5,81.4c2.1-5.7,4.6-11.2,7.4-16.5C12.1,70.2,9.6,75.7,7.5,81.4z"/>
	<path class="st0" d="M21.2,54.7c1.1-1.6,2.3-3.3,3.5-4.9C23.4,51.4,22.3,53,21.2,54.7z"/>
	<path class="st0" d="M4.7,90.1c0.8-2.9,1.8-5.8,2.8-8.7C6.5,84.2,5.5,87.1,4.7,90.1z"/>
	<path class="st0" d="M64.9,15c5.3-2.9,10.8-5.4,16.5-7.4C75.7,9.6,70.2,12.1,64.9,15z"/>
	<path class="st0" d="M49.8,24.6c1.6-1.2,3.2-2.3,4.9-3.5C53,22.3,51.4,23.4,49.8,24.6z"/>
	<path class="st0" d="M1.9,102c0.7-4.1,1.7-8.1,2.8-12C3.6,94,2.7,98,1.9,102z"/>
	<path class="st0" d="M24.6,49.8c2.4-3.2,4.9-6.2,7.6-9.2C29.5,43.6,27,46.6,24.6,49.8z"/>
	<path class="st0" d="M40.6,32.2c2.9-2.7,6-5.2,9.2-7.6C46.6,27,43.6,29.5,40.6,32.2z"/>
	<path class="st0" d="M54.7,21.2c1.6-1.1,3.3-2.2,5-3.2C58,19,56.3,20.1,54.7,21.2z"/>
	<path class="st0" d="M59.7,230c-1.7-1-3.4-2.1-5-3.2C56.3,227.9,58,229,59.7,230z"/>
	<path class="st0" d="M81.4,240.5c-5.7-2.1-11.2-4.6-16.5-7.4C70.2,235.9,75.7,238.4,81.4,240.5z"/>
	<path class="st0" d="M0.6,111.3c0.2-2.1,0.5-4.2,0.8-6.2C1.1,107.2,0.9,109.2,0.6,111.3z"/>
	<path class="st0" d="M111.3,247.4c-2.1-0.2-4.2-0.5-6.2-0.8C107.2,246.9,109.2,247.1,111.3,247.4z"/>
	<path class="st0" d="M102,246.1c-4.1-0.7-8.1-1.7-12-2.8C94,244.4,98,245.3,102,246.1z"/>
	<path class="st0" d="M11,175c-0.8-1.8-1.6-3.7-2.4-5.6C9.3,171.3,10.1,173.2,11,175z"/>
	<path class="st0" d="M49.8,223.4c-3.2-2.4-6.2-4.9-9.2-7.6C43.6,218.5,46.6,221,49.8,223.4z"/>
	<path class="st0" d="M24.6,198.2c-1.2-1.6-2.3-3.2-3.5-4.9C22.3,195,23.4,196.6,24.6,198.2z"/>
	<path class="st0" d="M30.2,205.1c-1.9-2.2-3.8-4.6-5.6-7C26.4,200.6,28.3,202.9,30.2,205.1z"/>
	<path class="st0" d="M90.1,243.3c-2.9-0.8-5.8-1.8-8.7-2.8C84.2,241.5,87.1,242.5,90.1,243.3z"/>
	<path class="st0" d="M81.4,7.5c2.8-1,5.7-2,8.7-2.8C87.1,5.5,84.2,6.5,81.4,7.5z"/>
	<path class="st0" d="M34.2,209.6c1.4,1.4,2.8,2.8,4.2,4.2C37,212.4,35.6,211,34.2,209.6z"/>
	<path class="st0" d="M38.4,34.2c-1.4,1.4-2.8,2.8-4.2,4.2C35.6,37,37,35.6,38.4,34.2z"/>
	<path class="st0" d="M90.1,4.7c3.9-1.1,7.9-2,12-2.8C98,2.7,94,3.6,90.1,4.7z"/>
	<path class="st0" d="M105.1,1.4c2.1-0.3,4.1-0.6,6.2-0.8C109.2,0.9,107.2,1.1,105.1,1.4z"/>
	<path class="st0" d="M203.2,203.2C182,224.3,153.9,236,124,236c-29.9,0-58-11.7-79.2-32.8S12,153.9,12,124
		c0-29.9,11.7-58,32.8-79.2C66,23.7,94.1,12,124,12V0c-4.3,0-8.5,0.2-12.7,0.6c-2.1,0.2-4.2,0.5-6.2,0.8c-1,0.2-2,0.3-3.1,0.5
		C98,2.7,94,3.6,90.1,4.7c-2.9,0.8-5.8,1.8-8.7,2.8c-5.7,2.1-11.2,4.6-16.5,7.4c-1.8,1-3.5,2-5.2,3c-1.7,1-3.4,2.1-5,3.2
		c-1.6,1.1-3.3,2.3-4.9,3.5c-3.2,2.4-6.2,4.9-9.2,7.6c-0.7,0.7-1.5,1.3-2.2,2c-1.4,1.4-2.8,2.8-4.2,4.2c-0.7,0.7-1.4,1.4-2,2.2
		c-2.7,2.9-5.2,6-7.6,9.2c-1.2,1.6-2.3,3.2-3.5,4.9S19,58,18,59.7s-2,3.4-3,5.2c-2.9,5.3-5.4,10.8-7.4,16.5c-1,2.8-2,5.7-2.8,8.7
		c-1.1,3.9-2,7.9-2.8,12c-0.2,1-0.4,2-0.5,3.1c-0.3,2.1-0.6,4.1-0.8,6.2C0.2,115.5,0,119.7,0,124c0,16.1,3,31.4,8.6,45.5
		c0.7,1.9,1.5,3.7,2.4,5.6c2.9,6.4,6.3,12.5,10.2,18.3c1.1,1.6,2.3,3.3,3.5,4.9c1.8,2.4,3.7,4.7,5.6,7c1.3,1.5,2.6,3,4,4.4
		c1.4,1.4,2.8,2.8,4.2,4.2c0.7,0.7,1.4,1.4,2.2,2c2.9,2.7,6,5.2,9.2,7.6c1.6,1.2,3.2,2.3,4.9,3.5c1.6,1.1,3.3,2.2,5,3.2s3.4,2,5.2,3
		c5.3,2.9,10.8,5.4,16.5,7.4c2.8,1,5.7,2,8.7,2.8c3.9,1.1,7.9,2,12,2.8c1,0.2,2,0.4,3.1,0.5c2.1,0.3,4.1,0.6,6.2,0.8
		c4.2,0.4,8.4,0.6,12.7,0.6c68.5,0,124-55.5,124-124h-12C236,153.9,224.3,182,203.2,203.2z"/>
</g>
<path class="st1" d="M246.6,105.1c-0.2-1-0.3-2-0.5-3.1c-0.7-4.1-1.7-8.1-2.8-12c-0.8-2.9-1.8-5.8-2.8-8.7
	c-2.1-5.7-4.6-11.2-7.4-16.5c-1-1.8-2-3.5-3-5.2c-1-1.7-2.1-3.4-3.2-5s-2.3-3.3-3.5-4.9c-2.4-3.2-4.9-6.2-7.6-9.2
	c-0.7-0.7-1.3-1.5-2-2.2c-1.4-1.4-2.8-2.8-4.2-4.2c-1.4-1.4-2.9-2.7-4.4-4c-2.2-1.9-4.6-3.8-7-5.6c-1.6-1.2-3.2-2.3-4.9-3.5
	c-5.8-3.9-11.9-7.3-18.3-10.2c-1.8-0.8-3.7-1.6-5.6-2.4C155.4,3,140.1,0,124,0v12c29.9,0,58,11.7,79.2,32.8
	C224.3,66,236,94.1,236,124h12c0-4.3-0.2-8.5-0.6-12.7C247.1,109.2,246.9,107.2,246.6,105.1z"/>
</svg>
