<?xml version="1.0" encoding="utf-8"?>
<svg version="1.1" xmlns:xlink="http://www.w3.org/1999/xlink" width="21px" height="16px" xmlns="http://www.w3.org/2000/svg">
  <g transform="matrix(1 0 0 1 -219 -12 )">
    <path d="M 9.56651718983559 12  L 10.2104173853053 12  L 11.5442106473497 10.6818181818182  L 9.79648154536048 8.95454545454545  L 8.46268828331608 10.2727272727273  L 8.46268828331608 10.9090909090909  L 9.56651718983559 10.9090909090909  L 9.56651718983559 12  Z M 15.2581349890767 4.19318181818182  C 15.3884481238742 4.06439393939394  15.3922808631329 3.93939393939394  15.2696332068529 3.81818181818182  C 15.146985550573 3.6969696969697  15.0205051550343 3.70075757575757  14.8901920202369 3.82954545454546  L 10.8658157985512 7.80681818181818  C 10.7355026637538 7.93560606060606  10.731669924495 8.06060606060606  10.854317580775 8.18181818181818  C 10.9769652370549 8.3030303030303  11.1034456325936 8.29924242424242  11.2337587673911 8.17045454545455  L 15.2581349890767 4.19318181818182  Z M 15.9595262734276 10.2386363636364  C 16.1128358437776 10.2992424242424  16.1894906289525 10.4090909090909  16.1894906289525 10.5681818181818  L 16.1894906289525 12.7272727272727  C 16.1894906289525 13.6287878787879  15.8656241615883 14.3996212121212  15.2178912268598 15.0397727272727  C 14.5701582921314 15.6799242424242  13.7901958529761 16  12.8780039093941 16  L 3.31148671955847 16  C 2.39929477597639 16  1.61933233682112 15.6799242424242  0.971599402092664 15.0397727272727  C 0.323866467364212 14.3996212121212  0 13.6287878787879  0 12.7272727272727  L 0 3.27272727272727  C 0 2.37121212121212  0.323866467364212 1.60037878787879  0.971599402092664 0.960227272727273  C 1.61933233682112 0.320075757575756  2.39929477597639 0  3.31148671955847 0  L 12.8780039093941 0  C 13.3609290559963 0  13.8093595492699 0.0946969696969688  14.2232953892147 0.284090909090908  C 14.3382775669771 0.337121212121211  14.4072668736346 0.424242424242424  14.4302633091871 0.545454545454545  C 14.4532597447396 0.674242424242424  14.4187650914108 0.784090909090908  14.3267793492009 0.875  L 13.7633666781649 1.43181818181818  C 13.65604997892 1.53787878787879  13.53340232264 1.56818181818182  13.3954237093251 1.52272727272727  C 13.2191177034227 1.47727272727273  13.046644436779 1.45454545454546  12.8780039093941 1.45454545454546  L 3.31148671955847 1.45454545454546  C 2.8055651374037 1.45454545454546  2.37246560116515 1.63257575757576  2.01218811084283 1.98863636363636  C 1.65191062052048 2.34469696969697  1.47177187535931 2.77272727272727  1.47177187535931 3.27272727272727  L 1.47177187535931 12.7272727272727  C 1.47177187535931 13.2272727272727  1.65191062052048 13.655303030303  2.01218811084283 14.0113636363636  C 2.37246560116515 14.3674242424242  2.8055651374037 14.5454545454545  3.31148671955847 14.5454545454545  L 12.8780039093941 14.5454545454545  C 13.3839254915488 14.5454545454545  13.8170250277874 14.3674242424242  14.1773025181097 14.0113636363636  C 14.537580008432 13.655303030303  14.7177187535932 13.2272727272727  14.7177187535932 12.7272727272727  L 14.7177187535932 11.2954545454545  C 14.7177187535932 11.1969696969697  14.7522134069219 11.1136363636364  14.8212027135794 11.0454545454545  L 15.5570886512591 10.3181818181818  C 15.6720708290215 10.2045454545455  15.8062167030777 10.1780303030303  15.9595262734276 10.2386363636364  Z M 7.3588593767966 9.81818181818182  L 15.085661722433 2.18181818181818  L 18.3971484419915 5.45454545454546  L 10.6703460963551 13.0909090909091  L 7.3588593767966 13.0909090909091  L 7.3588593767966 9.81818181818182  Z M 20.5128205128205 2.90909090909091  C 20.5128205128205 3.21212121212121  20.4055038135756 3.46969696969697  20.1908704150857 3.68181818181818  L 19.1330343796712 4.72727272727273  L 15.8215476601127 1.45454545454546  L 16.8793836955272 0.409090909090908  C 17.0940170940171 0.196969696969695  17.354643363612 0.0909090909090917  17.6612625043118 0.0909090909090917  C 17.9678816450117 0.0909090909090917  18.2285079146066 0.196969696969695  18.4431413130965 0.409090909090908  L 20.1908704150857 2.13636363636364  C 20.4055038135756 2.34848484848485  20.5128205128205 2.60606060606061  20.5128205128205 2.90909090909091  Z " fill-rule="nonzero" fill="#aeaeae" stroke="none" transform="matrix(1 0 0 1 219 12 )" />
  </g>
</svg>