<?xml version="1.0" encoding="utf-8"?>
<svg version="1.1" xmlns:xlink="http://www.w3.org/1999/xlink" width="12px" height="12px" xmlns="http://www.w3.org/2000/svg">
  <g transform="matrix(1 0 0 1 -116 -1274 )">
    <path d="M 11.7613636363636 4.60227272727263  C 11.9204545454545 4.76136363636363  12 4.95454545454538  12 5.18181818181813  L 12 6.81818181818187  C 12 7.04545454545462  11.9204545454545 7.23863636363637  11.7613636363636 7.39772727272725  C 11.6022727272727 7.55681818181824  11.4090909090909 7.63636363636351  11.1818181818182 7.63636363636351  L 7.63636363636363 7.63636363636351  L 7.63636363636363 11.1818181818182  C 7.63636363636363 11.4090909090908  7.55681818181819 11.6022727272727  7.39772727272727 11.7613636363635  C 7.23863636363637 11.9204545454545  7.04545454545455 12  6.81818181818181 12  L 5.18181818181819 12  C 4.95454545454545 12  4.76136363636364 11.9204545454545  4.60227272727273 11.7613636363635  C 4.44318181818183 11.6022727272727  4.36363636363636 11.4090909090908  4.36363636363636 11.1818181818182  L 4.36363636363636 7.63636363636351  L 0.818181818181813 7.63636363636351  C 0.590909090909093 7.63636363636351  0.39772727272728 7.55681818181824  0.23863636363636 7.39772727272725  C 0.0795454545454533 7.23863636363637  0 7.04545454545462  0 6.81818181818187  L 0 5.18181818181813  C 0 4.95454545454538  0.0795454545454533 4.76136363636363  0.23863636363636 4.60227272727263  C 0.39772727272728 4.44318181818187  0.590909090909093 4.36363636363637  0.818181818181813 4.36363636363637  L 4.36363636363636 4.36363636363637  L 4.36363636363636 0.81818181818187  C 4.36363636363636 0.590909090909008  4.44318181818183 0.397727272727252  4.60227272727273 0.238636363636374  C 4.76136363636364 0.0795454545453822  4.95454545454545 0  5.18181818181819 0  L 6.81818181818181 0  C 7.04545454545455 0  7.23863636363637 0.0795454545453822  7.39772727272727 0.238636363636374  C 7.55681818181819 0.397727272727252  7.63636363636363 0.590909090909008  7.63636363636363 0.81818181818187  L 7.63636363636363 4.36363636363637  L 11.1818181818182 4.36363636363637  C 11.4090909090909 4.36363636363637  11.6022727272727 4.44318181818187  11.7613636363636 4.60227272727263  Z " fill-rule="nonzero" fill="#7fa543" stroke="none" transform="matrix(1 0 0 1 116 1274 )" />
  </g>
</svg>