<?xml version="1.0" encoding="utf-8"?>
<svg version="1.1" xmlns:xlink="http://www.w3.org/1999/xlink" width="7px" height="12px" xmlns="http://www.w3.org/2000/svg">
  <g transform="matrix(1 0 0 1 -119 -306 )">
    <path d="M 6.49833333333333 0.22265625  C 6.64611111111111 0.37109375  6.72 0.546875  6.72 0.75  L 6.72 11.25  C 6.72 11.453125  6.64611111111111 11.62890625  6.49833333333333 11.77734375  C 6.35055555555556 11.92578125  6.17555555555556 12  5.97333333333334 12  C 5.77111111111111 12  5.59611111111111 11.92578125  5.44833333333334 11.77734375  L 0.221666666666664 6.52734375  C 0.073888888888888 6.37890625  0 6.203125  0 6  C 0 5.796875  0.073888888888888 5.62109375  0.221666666666664 5.47265625  L 5.44833333333334 0.22265625  C 5.59611111111111 0.07421875  5.77111111111111 0  5.97333333333334 0  C 6.17555555555556 0  6.35055555555556 0.07421875  6.49833333333333 0.22265625  Z " fill-rule="nonzero" fill="#00b4db" stroke="none" transform="matrix(1 0 0 1 119 306 )" />
  </g>
</svg>