<?xml version="1.0" encoding="utf-8"?>
<svg version="1.1" xmlns:xlink="http://www.w3.org/1999/xlink" width="16px" height="16px" xmlns="http://www.w3.org/2000/svg">
  <g transform="matrix(1 0 0 1 -208 -12 )">
    <path d="M 9.23958333333331 13.2395833333333  C 9.30208333333331 13.1770833333333  9.33333333333331 13.0972222222222  9.33333333333331 13  L 9.33333333333331 11  C 9.33333333333331 10.9027777777778  9.30208333333331 10.8229166666667  9.23958333333331 10.7604166666667  C 9.17708333333331 10.6979166666667  9.09722222222223 10.6666666666667  9 10.6666666666667  L 7 10.6666666666667  C 6.90277777777777 10.6666666666667  6.82291666666669 10.6979166666667  6.76041666666669 10.7604166666667  C 6.69791666666669 10.8229166666667  6.66666666666669 10.9027777777778  6.66666666666669 11  L 6.66666666666669 13  C 6.66666666666669 13.0972222222222  6.69791666666669 13.1770833333333  6.76041666666669 13.2395833333333  C 6.82291666666669 13.3020833333333  6.90277777777777 13.3333333333333  7 13.3333333333333  L 9 13.3333333333333  C 9.09722222222223 13.3333333333333  9.17708333333331 13.3020833333333  9.23958333333331 13.2395833333333  Z M 11.8697916666667 6.84375  C 11.9565972222222 6.58680555555554  12 6.30555555555554  12 6  C 12 5.38888888888891  11.8072916666667 4.82291666666669  11.421875 4.30208333333331  C 11.0364583333333 3.78125  10.5555555555555 3.37847222222223  9.97916666666669 3.09375  C 9.40277777777777 2.80902777777777  8.8125 2.66666666666669  8.20833333333331 2.66666666666669  C 6.52083333333331 2.66666666666669  5.23263888888891 3.40625  4.34375 4.88541666666669  C 4.23958333333331 5.05208333333331  4.26736111111109 5.19791666666669  4.42708333333331 5.32291666666669  L 5.80208333333331 6.36458333333331  C 5.85069444444446 6.40625  5.91666666666669 6.42708333333331  6 6.42708333333331  C 6.11111111111109 6.42708333333331  6.19791666666669 6.38541666666669  6.26041666666669 6.30208333333331  C 6.62847222222223 5.82986111111109  6.92708333333331 5.51041666666669  7.15625 5.34375  C 7.39236111111109 5.17708333333331  7.69097222222223 5.09375  8.05208333333331 5.09375  C 8.38541666666669 5.09375  8.68229166666669 5.18402777777777  8.94270833333331 5.36458333333331  C 9.203125 5.54513888888891  9.33333333333331 5.75  9.33333333333331 5.97916666666669  C 9.33333333333331 6.24305555555554  9.26388888888891 6.45486111111109  9.125 6.61458333333331  C 8.98611111111109 6.77430555555554  8.75 6.93055555555554  8.41666666666669 7.08333333333331  C 7.97916666666669 7.27777777777777  7.578125 7.578125  7.21354166666669 7.984375  C 6.84895833333331 8.390625  6.66666666666669 8.82638888888891  6.66666666666669 9.29166666666669  L 6.66666666666669 9.66666666666669  C 6.66666666666669 9.76388888888891  6.69791666666669 9.84375  6.76041666666669 9.90625  C 6.82291666666669 9.96875  6.90277777777777 10  7 10  L 9 10  C 9.09722222222223 10  9.17708333333331 9.96875  9.23958333333331 9.90625  C 9.30208333333331 9.84375  9.33333333333331 9.76388888888891  9.33333333333331 9.66666666666669  C 9.33333333333331 9.53472222222223  9.40798611111109 9.36284722222223  9.55729166666669 9.15104166666669  C 9.70659722222223 8.93923611111109  9.89583333333331 8.76736111111109  10.125 8.63541666666669  C 10.3472222222222 8.51041666666669  10.5173611111111 8.41145833333331  10.6354166666667 8.33854166666669  C 10.7534722222222 8.265625  10.9131944444445 8.14409722222223  11.1145833333333 7.97395833333331  C 11.3159722222222 7.80381944444446  11.4704861111111 7.63715277777777  11.578125 7.47395833333331  C 11.6857638888889 7.31076388888891  11.7829861111111 7.10069444444446  11.8697916666667 6.84375  Z M 14.9270833333333 3.984375  C 15.6423611111111 5.21006944444446  16 6.54861111111109  16 8  C 16 9.45138888888891  15.6423611111111 10.7899305555555  14.9270833333333 12.015625  C 14.2118055555555 13.2413194444445  13.2413194444445 14.2118055555555  12.015625 14.9270833333333  C 10.7899305555555 15.6423611111111  9.45138888888891 16  8 16  C 6.54861111111109 16  5.21006944444446 15.6423611111111  3.984375 14.9270833333333  C 2.75868055555554 14.2118055555555  1.78819444444446 13.2413194444445  1.07291666666669 12.015625  C 0.357638888888914 10.7899305555555  0 9.45138888888891  0 8  C 0 6.54861111111109  0.357638888888914 5.21006944444446  1.07291666666669 3.984375  C 1.78819444444446 2.75868055555554  2.75868055555554 1.78819444444446  3.984375 1.07291666666669  C 5.21006944444446 0.357638888888914  6.54861111111109 0  8 0  C 9.45138888888891 0  10.7899305555555 0.357638888888914  12.015625 1.07291666666669  C 13.2413194444445 1.78819444444446  14.2118055555555 2.75868055555554  14.9270833333333 3.984375  Z " fill-rule="nonzero" fill="#000000" stroke="none" transform="matrix(1 0 0 1 208 12 )" />
  </g>
</svg>