<?xml version="1.0" encoding="utf-8"?>
<svg version="1.1" xmlns:xlink="http://www.w3.org/1999/xlink" width="200px" height="200px" xmlns="http://www.w3.org/2000/svg">
  <g transform="matrix(1 0 0 1 100 0 )">
    <path d="M 0 4  C 53.76 4  96 46.24  96 100  C 96 153.76  53.76 196  0 196  C -53.76 196  -96 153.76  -96 100  C -96 46.24  -53.76 4  0 4  Z " fill-rule="nonzero" fill="#ffffff" stroke="none" fill-opacity="0" />
    <path d="M 0 2.5  C 54.6 2.5  97.5 45.4  97.5 100  C 97.5 154.6  54.6 197.5  0 197.5  C -54.6 197.5  -97.5 154.6  -97.5 100  C -97.5 45.4  -54.6 2.5  0 2.5  Z " stroke-width="5" stroke="#ccccff" fill="none" />
  </g>
</svg>