<?xml version="1.0" encoding="utf-8"?>
<svg version="1.1" xmlns:xlink="http://www.w3.org/1999/xlink" width="16px" height="16px" xmlns="http://www.w3.org/2000/svg">
  <g transform="matrix(1 0 0 1 -197 -2330 )">
    <path d="M 11.5729166666667 7.42708333333331  C 11.6770833333333 7.53819444444446  11.7013888888889 7.65972222222206  11.6458333333333 7.79166666666669  C 11.5902777777778 7.93055555555554  11.4861111111111 8  11.3333333333333 8  L 9.33333333333331 8  L 9.33333333333331 11.6666666666667  C 9.33333333333331 11.7638888888888  9.30208333333331 11.84375  9.23958333333331 11.90625  C 9.17708333333331 11.96875  9.09722222222223 12  9 12  L 7 12  C 6.90277777777777 12  6.82291666666669 11.96875  6.76041666666669 11.90625  C 6.69791666666669 11.84375  6.66666666666669 11.7638888888888  6.66666666666669 11.6666666666667  L 6.66666666666669 8  L 4.66666666666669 8  C 4.56944444444446 8  4.48958333333331 7.96875  4.42708333333331 7.90625  C 4.36458333333331 7.84375  4.33333333333331 7.7638888888888  4.33333333333331 7.66666666666669  C 4.33333333333331 7.58333333333331  4.36805555555554 7.5  4.4375 7.41666666666669  L 7.76041666666669 4.09375  C 7.83680555555554 4.03125  7.91666666666669 4  8 4  C 8.08333333333331 4  8.16319444444446 4.03125  8.23958333333331 4.09375  L 11.5729166666667 7.42708333333331  Z M 10.84375 3.09375  C 9.97569444444446 2.58680555555554  9.02777777777777 2.33333333333331  8 2.33333333333331  C 6.97222222222223 2.33333333333331  6.02430555555554 2.58680555555554  5.15625 3.09375  C 4.28819444444446 3.60069444444446  3.60069444444446 4.28819444444446  3.09375 5.15625  C 2.58680555555554 6.02430555555554  2.33333333333331 6.97222222222206  2.33333333333331 8  C 2.33333333333331 9.02777777777794  2.58680555555554 9.97569444444446  3.09375 10.84375  C 3.60069444444446 11.7118055555555  4.28819444444446 12.3993055555555  5.15625 12.90625  C 6.02430555555554 13.4131944444445  6.97222222222223 13.6666666666667  8 13.6666666666667  C 9.02777777777777 13.6666666666667  9.97569444444446 13.4131944444445  10.84375 12.90625  C 11.7118055555555 12.3993055555555  12.3993055555555 11.7118055555555  12.90625 10.84375  C 13.4131944444444 9.97569444444446  13.6666666666667 9.02777777777794  13.6666666666667 8  C 13.6666666666667 6.97222222222206  13.4131944444444 6.02430555555554  12.90625 5.15625  C 12.3993055555555 4.28819444444446  11.7118055555555 3.60069444444446  10.84375 3.09375  Z M 14.9270833333333 3.984375  C 15.6423611111111 5.21006944444446  16 6.5486111111112  16 8  C 16 9.4513888888888  15.6423611111111 10.7899305555555  14.9270833333333 12.015625  C 14.2118055555556 13.2413194444445  13.2413194444444 14.2118055555555  12.015625 14.9270833333333  C 10.7899305555555 15.6423611111112  9.45138888888889 16  8 16  C 6.54861111111111 16  5.21006944444446 15.6423611111112  3.984375 14.9270833333333  C 2.75868055555554 14.2118055555555  1.78819444444446 13.2413194444445  1.07291666666669 12.015625  C 0.357638888888886 10.7899305555555  0 9.4513888888888  0 8  C 0 6.5486111111112  0.357638888888886 5.21006944444446  1.07291666666669 3.984375  C 1.78819444444446 2.75868055555554  2.75868055555554 1.78819444444446  3.984375 1.07291666666669  C 5.21006944444446 0.3576388888888  6.54861111111111 0  8 0  C 9.45138888888889 0  10.7899305555555 0.3576388888888  12.015625 1.07291666666669  C 13.2413194444444 1.78819444444446  14.2118055555556 2.75868055555554  14.9270833333333 3.984375  Z " fill-rule="nonzero" fill="#ffffff" stroke="none" transform="matrix(1 0 0 1 197 2330 )" />
  </g>
</svg>