<?xml version="1.0" encoding="utf-8"?>
<svg version="1.1" xmlns:xlink="http://www.w3.org/1999/xlink" width="11px" height="6px" xmlns="http://www.w3.org/2000/svg">
  <g transform="matrix(1 0 0 1 -91 -104 )">
    <path d="M 10.710216703869 0.197916666666671  C 10.8452045097553 0.329861111111114  10.9126984126984 0.486111111111114  10.9126984126984 0.666666666666671  C 10.9126984126984 0.847222222222229  10.8452045097553 1.00347222222223  10.710216703869 1.13541666666667  L 5.93591114831344 5.80208333333333  C 5.80092334242721 5.93402777777777  5.64106936177251 6  5.45634920634922 6  C 5.27162905092592 6  5.11177507027116 5.93402777777777  4.97678726438488 5.80208333333333  L 0.202481708829339 1.13541666666667  C 0.067493902943113 1.00347222222223  0 0.847222222222229  0 0.666666666666671  C 0 0.486111111111114  0.067493902943113 0.329861111111114  0.202481708829339 0.197916666666671  C 0.337469514715565 0.0659722222222285  0.497323495370381 0  0.682043650793673 0  L 10.2306547619048 0  C 10.4153749173281 0  10.5752288979828 0.0659722222222285  10.710216703869 0.197916666666671  Z " fill-rule="nonzero" fill="#000000" stroke="none" transform="matrix(1 0 0 1 91 104 )" />
  </g>
</svg>