<?xml version="1.0" encoding="utf-8"?>
<svg version="1.1" xmlns:xlink="http://www.w3.org/1999/xlink" width="36px" height="32px" xmlns="http://www.w3.org/2000/svg">
  <defs>
    <filter x="4px" y="8px" width="36px" height="32px" filterUnits="userSpaceOnUse" id="filter95">
      <feOffset dx="0" dy="2" in="SourceAlpha" result="shadowOffsetInner" />
      <feGaussianBlur stdDeviation="4" in="shadowOffsetInner" result="shadowGaussian" />
      <feComposite in2="shadowGaussian" operator="atop" in="SourceAlpha" result="shadowComposite" />
      <feColorMatrix type="matrix" values="0 0 0 0 0.772549019607843  0 0 0 0 0.796078431372549  0 0 0 0 0.815686274509804  0 0 0 0.149019607843137 0  " in="shadowComposite" />
    </filter>
    <g id="widget96">
      <path d="M 18.812003968254 13.0375  C 18.9690806878307 13.1958333333333  19.047619047619 13.3833333333333  19.047619047619 13.6  L 19.047619047619 15.2  C 19.047619047619 15.4166666666667  18.9690806878307 15.6041666666667  18.812003968254 15.7625  C 18.6549272486773 15.9208333333333  18.4689153439153 16  18.2539682539683 16  L 0.793650793650794 16  C 0.578703703703704 16  0.392691798941799 15.9208333333333  0.235615079365079 15.7625  C 0.0785383597883591 15.6041666666667  0 15.4166666666667  0 15.2  L 0 13.6  C 0 13.3833333333333  0.0785383597883591 13.1958333333333  0.235615079365079 13.0375  C 0.392691798941799 12.8791666666667  0.578703703703704 12.8  0.793650793650794 12.8  L 18.2539682539683 12.8  C 18.4689153439153 12.8  18.6549272486773 12.8791666666667  18.812003968254 13.0375  Z M 18.812003968254 6.6375  C 18.9690806878307 6.79583333333333  19.047619047619 6.98333333333333  19.047619047619 7.2  L 19.047619047619 8.8  C 19.047619047619 9.01666666666667  18.9690806878307 9.20416666666667  18.812003968254 9.3625  C 18.6549272486773 9.52083333333333  18.4689153439153 9.6  18.2539682539683 9.6  L 0.793650793650794 9.6  C 0.578703703703704 9.6  0.392691798941799 9.52083333333333  0.235615079365079 9.3625  C 0.0785383597883591 9.20416666666667  0 9.01666666666667  0 8.8  L 0 7.2  C 0 6.98333333333333  0.0785383597883591 6.79583333333333  0.235615079365079 6.6375  C 0.392691798941799 6.47916666666667  0.578703703703704 6.4  0.793650793650794 6.4  L 18.2539682539683 6.4  C 18.4689153439153 6.4  18.6549272486773 6.47916666666667  18.812003968254 6.6375  Z M 18.812003968254 0.237500000000001  C 18.9690806878307 0.395833333333332  19.047619047619 0.583333333333332  19.047619047619 0.800000000000001  L 19.047619047619 2.4  C 19.047619047619 2.61666666666667  18.9690806878307 2.80416666666667  18.812003968254 2.9625  C 18.6549272486773 3.12083333333333  18.4689153439153 3.2  18.2539682539683 3.2  L 0.793650793650794 3.2  C 0.578703703703704 3.2  0.392691798941799 3.12083333333333  0.235615079365079 2.9625  C 0.0785383597883591 2.80416666666667  0 2.61666666666667  0 2.4  L 0 0.800000000000001  C 0 0.583333333333332  0.0785383597883591 0.395833333333332  0.235615079365079 0.237500000000001  C 0.392691798941799 0.0791666666666657  0.578703703703704 0  0.793650793650794 0  L 18.2539682539683 0  C 18.4689153439153 0  18.6549272486773 0.0791666666666657  18.812003968254 0.237500000000001  Z " fill-rule="nonzero" fill="#777777" stroke="none" transform="matrix(1 0 0 1 12 14 )" />
    </g>
  </defs>
  <g transform="matrix(1 0 0 1 -4 -8 )">
    <use xlink:href="#widget96" filter="url(#filter95)" />
    <use xlink:href="#widget96" />
  </g>
</svg>