<?xml version="1.0" encoding="utf-8"?>
<svg version="1.1" xmlns:xlink="http://www.w3.org/1999/xlink" width="21px" height="18px" xmlns="http://www.w3.org/2000/svg">
  <g transform="matrix(1 0 0 1 -12 -13 )">
    <path d="M 14.8061899038461 2.314453125  C 13.4347098214286 1.771484375  11.9608516483516 1.5  10.3846153846154 1.5  C 8.80837912087912 1.5  7.33452094780222 1.771484375  5.96304086538464 2.314453125  C 4.59156078296706 2.857421875  3.50210336538464 3.58984375  2.69466861263737 4.51171875  C 1.8872338598901 5.43359375  1.4835164835165 6.4296875  1.4835164835165 7.5  C 1.4835164835165 8.375  1.75974416208794 9.208984375  2.31219951923077 10.001953125  C 2.86465487637361 10.794921875  3.64311469780222 11.48046875  4.6475789835165 12.05859375  L 5.6559065934066 12.64453125  L 5.34297733516485 13.76953125  C 5.15753777472526 14.48046875  4.88710508241758 15.15234375  4.53167925824175 15.78515625  C 5.70612980769232 15.29296875  6.76854395604397 14.625  7.7189217032967 13.78125  L 8.21729052197804 13.3359375  L 8.87791895604397 13.40625  C 9.41105769230768 13.46875  9.91328983516485 13.5  10.3846153846154 13.5  C 11.9608516483516 13.5  13.4347098214286 13.228515625  14.8061899038461 12.685546875  C 16.1776699862637 12.142578125  17.2671274038461 11.41015625  18.0745621565934 10.48828125  C 18.8819969093407 9.56640625  19.2857142857143 8.5703125  19.2857142857143 7.5  C 19.2857142857143 6.4296875  18.8819969093407 5.43359375  18.0745621565934 4.51171875  C 17.2671274038461 3.58984375  16.1776699862637 2.857421875  14.8061899038461 2.314453125  Z M 19.3784340659341 3.732421875  C 20.3056318681319 4.884765625  20.7692307692308 6.140625  20.7692307692308 7.5  C 20.7692307692308 8.859375  20.3056318681319 10.115234375  19.3784340659341 11.267578125  C 18.4512362637363 12.419921875  17.1917925824176 13.330078125  15.600103021978 13.998046875  C 14.0084134615385 14.666015625  12.2699175824176 15  10.3846153846154 15  C 9.84375 15  9.28356799450552 14.96875  8.70406936813191 14.90625  C 7.17419299450552 16.2734375  5.39706387362639 17.21875  3.37268200549448 17.7421875  C 2.99407623626371 17.8515625  2.5536572802198 17.9375  2.05142513736263 18  L 1.99347527472526 18  C 1.87757554945051 18  1.7732657967033 17.958984375  1.6805460164835 17.876953125  C 1.58782623626371 17.794921875  1.52601304945051 17.6875  1.49510645604397 17.5546875  L 1.49510645604397 17.54296875  C 1.47192651098902 17.51171875  1.46999484890114 17.46484375  1.4893114697802 17.40234375  C 1.50862809065933 17.33984375  1.51635473901098 17.30078125  1.51249141483515 17.28515625  C 1.50862809065933 17.26953125  1.52601304945051 17.232421875  1.56464629120882 17.173828125  L 1.63418612637361 17.068359375  C 1.63418612637361 17.068359375  1.66122939560438 17.03515625  1.71531593406593 16.96875  C 1.76940247252747 16.90234375  1.80030906593407 16.8671875  1.80803571428572 16.86328125  C 1.86212225274727 16.80078125  1.98188530219778 16.666015625  2.16732486263737 16.458984375  C 2.35276442307691 16.251953125  2.48604910714283 16.103515625  2.56717891483515 16.013671875  C 2.64830872252747 15.923828125  2.76807177197804 15.76953125  2.9264680631868 15.55078125  C 3.08486435439562 15.33203125  3.2104223901099 15.1328125  3.30314217032964 14.953125  C 3.39586195054949 14.7734375  3.5001717032967 14.54296875  3.61607142857144 14.26171875  C 3.73197115384613 13.98046875  3.83241758241758 13.68359375  3.91741071428572 13.37109375  C 2.70432692307691 12.67578125  1.74815418956041 11.81640625  1.04889251373629 10.79296875  C 0.349630837912059 9.76953125  0 8.671875  0 7.5  C 0 6.140625  0.463598901098862 4.884765625  1.3907967032967 3.732421875  C 2.31799450549448 2.580078125  3.5774381868132 1.669921875  5.16912774725273 1.001953125  C 6.76081730769232 0.333984375  8.4993131868132 0  10.3846153846154 0  C 12.2699175824176 0  14.0084134615385 0.333984375  15.600103021978 1.001953125  C 17.1917925824176 1.669921875  18.4512362637363 2.580078125  19.3784340659341 3.732421875  Z " fill-rule="nonzero" fill="#ffffff" stroke="none" transform="matrix(1 0 0 1 12 13 )" />
  </g>
</svg>