<?xml version="1.0" encoding="utf-8"?>
<svg version="1.1" xmlns:xlink="http://www.w3.org/1999/xlink" width="80px" height="80px" xmlns="http://www.w3.org/2000/svg">
  <g transform="matrix(1 0 0 1 -120 -271 )">
    <path d="M 19.921875 5.36458333333337  C 26.0503472222222 1.78819444444446  32.7430555555555 0  40 0  C 47.2569444444445 0  53.9496527777778 1.78819444444446  60.078125 5.36458333333337  C 66.2065972222222 8.94097222222217  71.0590277777778 13.7934027777778  74.6354166666667 19.921875  C 78.2118055555555 26.0503472222222  80 32.7430555555555  80 40  C 80 47.2569444444445  78.2118055555555 53.9496527777778  74.6354166666667 60.078125  C 71.0590277777778 66.2065972222222  66.2065972222222 71.0590277777778  60.078125 74.6354166666666  C 53.9496527777778 78.2118055555555  47.2569444444445 80  40 80  C 32.7430555555555 80  26.0503472222222 78.2118055555555  19.921875 74.6354166666666  C 13.7934027777778 71.0590277777778  8.94097222222223 66.2065972222222  5.36458333333331 60.078125  C 1.78819444444446 53.9496527777778  0 47.2569444444445  0 40  C 0 32.7430555555555  1.78819444444446 26.0503472222222  5.36458333333331 19.921875  C 8.94097222222223 13.7934027777778  13.7934027777778 8.94097222222217  19.921875 5.36458333333337  Z M 31.6666666666667 59.53125  L 60 42.8645833333334  C 61.1111111111111 42.2395833333334  61.6666666666667 41.2847222222222  61.6666666666667 40  C 61.6666666666667 38.7152777777778  61.1111111111111 37.7604166666666  60 37.1354166666666  L 31.6666666666667 20.46875  C 30.5902777777778 19.8090277777778  29.4791666666667 19.7916666666666  28.3333333333333 20.4166666666666  C 27.2222222222222 21.0763888888889  26.6666666666667 22.0486111111111  27 23.3333333333334  L 27 56.6666666666666  C 26.6666666666667 57.9513888888889  27.2222222222222 58.9236111111111  28.3333333333333 59.5833333333334  C 28.8888888888889 59.8611111111111  29.4444444444445 60  30 60  C 30.5902777777778 60  31.1458333333333 59.84375  31.6666666666667 59.53125  Z " fill-rule="nonzero" fill="#333333" stroke="none" transform="matrix(1 0 0 1 120 271 )" />
  </g>
</svg>