<?xml version="1.0" encoding="utf-8"?>
<svg version="1.1" xmlns:xlink="http://www.w3.org/1999/xlink" width="16px" height="16px" xmlns="http://www.w3.org/2000/svg">
  <g transform="matrix(1 0 0 1 -12 -12 )">
    <path d="M 9.88541666666666 9.88541666666666  C 10.40625 9.36458333333334  10.6666666666667 8.73611111111111  10.6666666666667 8  C 10.6666666666667 7.26388888888889  10.40625 6.63541666666666  9.88541666666666 6.11458333333334  C 9.36458333333334 5.59375  8.73611111111111 5.33333333333334  8 5.33333333333334  C 7.26388888888889 5.33333333333334  6.63541666666666 5.59375  6.11458333333334 6.11458333333334  C 5.59375 6.63541666666666  5.33333333333334 7.26388888888889  5.33333333333334 8  C 5.33333333333334 8.73611111111111  5.59375 9.36458333333334  6.11458333333334 9.88541666666666  C 6.63541666666666 10.40625  7.26388888888889 10.6666666666667  8 10.6666666666667  C 8.73611111111111 10.6666666666667  9.36458333333334 10.40625  9.88541666666666 9.88541666666666  Z M 15.9166666666667 6.61979166666666  C 15.9722222222222 6.69270833333334  16 6.77430555555554  16 6.86458333333334  L 16 9.17708333333334  C 16 9.26041666666666  15.9722222222222 9.34027777777777  15.9166666666667 9.41666666666666  C 15.8611111111111 9.49305555555554  15.7916666666667 9.53819444444446  15.7083333333333 9.55208333333334  L 13.78125 9.84375  C 13.6493055555555 10.21875  13.5138888888889 10.5347222222222  13.375 10.7916666666667  C 13.6180555555555 11.1388888888889  13.9895833333333 11.6180555555555  14.4895833333333 12.2291666666667  C 14.5590277777778 12.3125  14.59375 12.3993055555555  14.59375 12.4895833333333  C 14.59375 12.5798611111111  14.5625 12.6597222222222  14.5 12.7291666666667  C 14.3125 12.9861111111111  13.96875 13.3611111111111  13.46875 13.8541666666667  C 12.96875 14.3472222222222  12.6423611111111 14.59375  12.4895833333333 14.59375  C 12.40625 14.59375  12.3159722222222 14.5625  12.21875 14.5  L 10.78125 13.375  C 10.4756944444445 13.5347222222222  10.1597222222222 13.6666666666667  9.83333333333334 13.7708333333333  C 9.72222222222223 14.7152777777778  9.62152777777777 15.3611111111111  9.53125 15.7083333333333  C 9.48263888888889 15.9027777777778  9.35763888888889 16  9.15625 16  L 6.84375 16  C 6.74652777777777 16  6.66145833333334 15.9704861111111  6.58854166666666 15.9114583333333  C 6.515625 15.8524305555555  6.47569444444446 15.7777777777778  6.46875 15.6875  L 6.17708333333334 13.7708333333333  C 5.83680555555554 13.6597222222222  5.52430555555554 13.53125  5.23958333333334 13.3854166666667  L 3.77083333333334 14.5  C 3.70138888888889 14.5625  3.61458333333334 14.59375  3.51041666666666 14.59375  C 3.41319444444446 14.59375  3.32638888888889 14.5555555555555  3.25 14.4791666666667  C 2.375 13.6875  1.80208333333334 13.1041666666667  1.53125 12.7291666666667  C 1.48263888888889 12.6597222222222  1.45833333333334 12.5798611111111  1.45833333333334 12.4895833333333  C 1.45833333333334 12.40625  1.48611111111111 12.3263888888889  1.54166666666666 12.25  C 1.64583333333334 12.1041666666667  1.82291666666666 11.8732638888889  2.07291666666666 11.5572916666667  C 2.32291666666666 11.2413194444445  2.51041666666666 10.9965277777778  2.63541666666666 10.8229166666667  C 2.44791666666666 10.4756944444445  2.30555555555554 10.1319444444445  2.20833333333334 9.79166666666666  L 0.302083333333343 9.51041666666666  C 0.211805555555543 9.49652777777777  0.138888888888886 9.453125  0.0833333333333428 9.38020833333334  C 0.0277777777777715 9.30729166666666  0 9.22569444444446  0 9.13541666666666  L 0 6.82291666666666  C 0 6.73958333333334  0.0277777777777715 6.65972222222223  0.0833333333333428 6.58333333333334  C 0.138888888888886 6.50694444444446  0.204861111111114 6.46180555555554  0.28125 6.44791666666666  L 2.21875 6.15625  C 2.31597222222223 5.83680555555554  2.45138888888889 5.51736111111111  2.625 5.19791666666666  C 2.34722222222223 4.80208333333334  1.97569444444446 4.32291666666666  1.51041666666666 3.76041666666666  C 1.44097222222223 3.67708333333334  1.40625 3.59375  1.40625 3.51041666666666  C 1.40625 3.44097222222223  1.4375 3.36111111111111  1.5 3.27083333333334  C 1.68055555555554 3.02083333333334  2.02256944444446 2.64756944444446  2.52604166666666 2.15104166666666  C 3.02951388888889 1.65451388888889  3.35763888888889 1.40625  3.51041666666666 1.40625  C 3.60069444444446 1.40625  3.69097222222223 1.44097222222223  3.78125 1.51041666666666  L 5.21875 2.625  C 5.52430555555554 2.46527777777777  5.84027777777777 2.33333333333334  6.16666666666666 2.22916666666666  C 6.27777777777777 1.28472222222223  6.37847222222223 0.638888888888886  6.46875 0.291666666666657  C 6.51736111111111 0.0972222222222285  6.64236111111111 0  6.84375 0  L 9.15625 0  C 9.25347222222223 0  9.33854166666666 0.0295138888888857  9.41145833333334 0.0885416666666572  C 9.484375 0.147569444444429  9.52430555555554 0.222222222222229  9.53125 0.3125  L 9.82291666666666 2.22916666666666  C 10.1631944444445 2.34027777777777  10.4756944444445 2.46875  10.7604166666667 2.61458333333334  L 12.2395833333333 1.5  C 12.3020833333333 1.4375  12.3854166666667 1.40625  12.4895833333333 1.40625  C 12.5798611111111 1.40625  12.6666666666667 1.44097222222223  12.75 1.51041666666666  C 13.6458333333333 2.33680555555554  14.21875 2.92708333333334  14.46875 3.28125  C 14.5173611111111 3.33680555555554  14.5416666666667 3.41319444444446  14.5416666666667 3.51041666666666  C 14.5416666666667 3.59375  14.5138888888889 3.67361111111111  14.4583333333333 3.75  C 14.3541666666667 3.89583333333334  14.1770833333333 4.12673611111111  13.9270833333333 4.44270833333334  C 13.6770833333333 4.75868055555554  13.4895833333333 5.00347222222223  13.3645833333333 5.17708333333334  C 13.5451388888889 5.52430555555554  13.6875 5.86458333333334  13.7916666666667 6.19791666666666  L 15.6979166666667 6.48958333333334  C 15.7881944444445 6.50347222222223  15.8611111111111 6.546875  15.9166666666667 6.61979166666666  Z " fill-rule="nonzero" fill="#000000" stroke="none" transform="matrix(1 0 0 1 12 12 )" />
  </g>
</svg>