<?xml version="1.0" encoding="utf-8"?>
<svg version="1.1" xmlns:xlink="http://www.w3.org/1999/xlink" width="16px" height="16px" xmlns="http://www.w3.org/2000/svg">
  <g transform="matrix(1 0 0 1 -208 -12 )">
    <path d="M 13.1354166666667 9.13541666666667  C 13.2673611111111 9.00347222222222  13.3333333333333 8.84722222222222  13.3333333333333 8.66666666666667  L 13.3333333333333 7.33333333333334  C 13.3333333333333 7.15277777777778  13.2673611111111 6.99652777777778  13.1354166666667 6.86458333333334  C 13.0034722222222 6.73263888888889  12.8472222222222 6.66666666666666  12.6666666666667 6.66666666666666  L 7.4375 6.66666666666666  L 9.40625 4.69791666666666  C 9.53819444444444 4.56597222222222  9.60416666666667 4.40972222222222  9.60416666666667 4.22916666666666  C 9.60416666666667 4.04861111111111  9.53819444444444 3.89236111111111  9.40625 3.76041666666666  L 8.45833333333333 2.8125  C 8.33333333333333 2.6875  8.17708333333333 2.625  7.98958333333333 2.625  C 7.80208333333333 2.625  7.64583333333333 2.6875  7.52083333333333 2.8125  L 3.75 6.58333333333334  L 2.80208333333333 7.53125  C 2.67708333333333 7.65625  2.61458333333333 7.8125  2.61458333333333 8  C 2.61458333333333 8.1875  2.67708333333333 8.34375  2.80208333333333 8.46875  L 3.75 9.41666666666667  L 7.52083333333333 13.1875  C 7.64583333333333 13.3125  7.80208333333333 13.375  7.98958333333333 13.375  C 8.17708333333333 13.375  8.33333333333333 13.3125  8.45833333333333 13.1875  L 9.40625 12.2395833333333  C 9.53125 12.1145833333333  9.59375 11.9583333333333  9.59375 11.7708333333333  C 9.59375 11.5833333333333  9.53125 11.4270833333333  9.40625 11.3020833333333  L 7.4375 9.33333333333333  L 12.6666666666667 9.33333333333333  C 12.8472222222222 9.33333333333333  13.0034722222222 9.26736111111111  13.1354166666667 9.13541666666667  Z M 14.9270833333333 3.984375  C 15.6423611111111 5.21006944444444  16 6.54861111111111  16 8  C 16 9.45138888888889  15.6423611111111 10.7899305555556  14.9270833333333 12.015625  C 14.2118055555556 13.2413194444444  13.2413194444444 14.2118055555556  12.015625 14.9270833333333  C 10.7899305555556 15.6423611111111  9.45138888888889 16  8 16  C 6.54861111111111 16  5.21006944444444 15.6423611111111  3.984375 14.9270833333333  C 2.75868055555556 14.2118055555556  1.78819444444444 13.2413194444444  1.07291666666667 12.015625  C 0.357638888888886 10.7899305555556  0 9.45138888888889  0 8  C 0 6.54861111111111  0.357638888888886 5.21006944444444  1.07291666666667 3.984375  C 1.78819444444444 2.75868055555556  2.75868055555556 1.78819444444444  3.984375 1.07291666666666  C 5.21006944444444 0.357638888888886  6.54861111111111 0  8 0  C 9.45138888888889 0  10.7899305555556 0.357638888888886  12.015625 1.07291666666666  C 13.2413194444444 1.78819444444444  14.2118055555556 2.75868055555556  14.9270833333333 3.984375  Z " fill-rule="nonzero" fill="#000000" stroke="none" transform="matrix(1 0 0 1 208 12 )" />
  </g>
</svg>